<svg id="Layer_1" data-name="Layer 1" xmlns="http://www.w3.org/2000/svg" viewBox="0 0 476.04 209.99"><defs><style>.cls-1,.cls-15,.cls-8{fill:#762a19;}.cls-1,.cls-2,.cls-3,.cls-4,.cls-5,.cls-6,.cls-7{opacity:0.2;}.cls-10,.cls-17,.cls-2{fill:#ee775e;}.cls-11,.cls-18,.cls-3{fill:#ec9041;}.cls-12,.cls-19,.cls-4{fill:#f4c666;}.cls-13,.cls-20,.cls-5{fill:#8bb791;}.cls-14,.cls-21,.cls-6{fill:#0f4c5f;}.cls-16,.cls-7,.cls-9{fill:#c54a41;}.cls-10,.cls-11,.cls-12,.cls-13,.cls-14,.cls-8,.cls-9{opacity:0.3;}</style></defs><polygon class="cls-1" points="12.62 44.84 20.84 38.98 69.31 56.24 69.31 129.78 12.62 129.78 12.62 44.84"/><polygon class="cls-2" points="142.91 52.32 171.93 41.98 199.76 49.58 199.6 136.17 142.91 136.17 142.91 52.32"/><polygon class="cls-3" points="208.11 52.09 253.03 64.37 264.9 54.82 264.85 141 208.16 141 208.11 52.09"/><polygon class="cls-4" points="273.4 47.97 288.47 35.84 330.1 37.85 330 136.17 273.31 136.17 273.4 47.97"/><polygon class="cls-5" points="338.6 39.49 369.37 45.44 395.21 56.65 395.2 127.25 338.5 127.25 338.6 39.49"/><polygon class="cls-6" points="403.7 55.24 460.49 21.81 460.39 130.51 403.7 130.51 403.7 55.24"/><polygon class="cls-7" points="77.76 59.29 100.52 67.42 134.46 55.33 134.46 129.05 77.76 130.51 77.76 59.29"/><polygon class="cls-8" points="12.62 56.15 40.91 44.84 69.21 65.32 69.16 127.25 12.57 127.25 12.62 56.15"/><polygon class="cls-9" points="77.72 64.98 117.93 47.57 134.41 50.95 134.46 119.76 77.76 119.76 77.72 64.98"/><polygon class="cls-10" points="142.91 52.68 199.6 46.56 199.57 130.51 142.88 130.51 142.91 52.68"/><polygon class="cls-11" points="208.11 52.09 239.69 72.65 264.8 57.06 264.8 136.17 208.11 136.17 208.11 52.09"/><polygon class="cls-12" points="273.31 51.51 301.65 33.91 330 41.8 330 136.17 273.31 136.17 273.31 51.51"/><polygon class="cls-13" points="338.5 44.45 395.2 60.24 395.2 125.07 338.5 125.07 338.5 44.45"/><polygon class="cls-14" points="403.7 56.22 460.39 29.39 460.59 124.33 403.89 124.33 403.7 56.22"/><path class="cls-15" d="M40.87,50.94,12.52,71.36V192.68H69.21V68ZM30.16,167.25a13.91,13.91,0,0,0,5.4,5.28,15.83,15.83,0,0,0,7.83,1.92A16.92,16.92,0,0,0,52,172.29V159.21h7.38V176a23.47,23.47,0,0,1-7.56,4A29.05,29.05,0,0,1,43,181.29a24,24,0,0,1-11.58-2.79,20.66,20.66,0,0,1-8.1-7.71,22.42,22.42,0,0,1,0-22.2,20.67,20.67,0,0,1,8.13-7.71,24.25,24.25,0,0,1,11.67-2.79,25.52,25.52,0,0,1,9.6,1.74,18.84,18.84,0,0,1,7.26,5.1L55,149.73a15.8,15.8,0,0,0-11.58-4.8,16.34,16.34,0,0,0-7.89,1.86,13.5,13.5,0,0,0-5.4,5.22,15,15,0,0,0-1.95,7.68A14.78,14.78,0,0,0,30.16,167.25Z"/><path class="cls-16" d="M93.73,82.7l-16-9.62v119.6h56.69V61.83Zm27.3,98H95.83V146.37h7.56v28.2H121Z"/><path class="cls-17" d="M142.91,57.47V192.68h56.7V69ZM186.83,166q0,7.2-4.08,11.25t-11.46,4q-7.38,0-11.52-4.08T155.63,166V146.37h7.56v19.38q0,4.44,2.1,6.78a7.72,7.72,0,0,0,6.06,2.34,7.6,7.6,0,0,0,6-2.31q2.07-2.31,2.07-6.81V146.37h7.44Z"/><path class="cls-18" d="M242.28,153.69a11.74,11.74,0,0,0-5.82-1.44,11.4,11.4,0,0,0-5.76,1.47,10.71,10.71,0,0,0-4,4,11.38,11.38,0,0,0-1.47,5.79,11.55,11.55,0,0,0,1.47,5.82,10.65,10.65,0,0,0,4,4.05,11.4,11.4,0,0,0,5.76,1.47,11.55,11.55,0,0,0,5.82-1.47,10.43,10.43,0,0,0,4-4.05,12.48,12.48,0,0,0,0-11.64A10.23,10.23,0,0,0,242.28,153.69Z"/><path class="cls-18" d="M240.76,77.29l-32.65-6.62v122H264.8V66.89ZM253,172.62a17.39,17.39,0,0,1-6.78,6.36,21.48,21.48,0,0,1-19.38,0A17.69,17.69,0,0,1,220,154.44a17.1,17.1,0,0,1,6.78-6.33,21.73,21.73,0,0,1,19.38,0A17.65,17.65,0,0,1,253,172.62Z"/><path class="cls-19" d="M301.65,51.23,273.31,63.49V193H330V55.27Zm15.81,129.46h-6.24l-17.82-21.6v21.6h-7.56V146.37h6.3L310,168V146.37h7.5Z"/><path class="cls-20" d="M338.5,56V192.68h56.7V63.75Zm46.17,89.3H370.75v35.4H363v-35.4H349v-6.6h35.64Z"/><path class="cls-21" d="M403.7,62.08v130.6h56.69V50.94Zm43.23,113a12.86,12.86,0,0,1-5.73,4.5,23.31,23.31,0,0,1-9.36,1.68,32,32,0,0,1-9.39-1.38,19.6,19.6,0,0,1-7.17-3.66l2.7-6.06a21.27,21.27,0,0,0,6.33,3.33,23,23,0,0,0,7.53,1.29q4.68,0,7-1.5a4.54,4.54,0,0,0,2.31-4,3.83,3.83,0,0,0-1.29-3,9.06,9.06,0,0,0-3.27-1.83q-2-.66-5.4-1.5a63,63,0,0,1-7.77-2.28,12.79,12.79,0,0,1-5.1-3.57,9.62,9.62,0,0,1-2.13-6.57,11.21,11.21,0,0,1,1.89-6.33,12.79,12.79,0,0,1,5.7-4.53,23.09,23.09,0,0,1,9.33-1.68,30.13,30.13,0,0,1,7.56,1,20.9,20.9,0,0,1,6.42,2.76l-2.46,6.06a24.27,24.27,0,0,0-5.76-2.46,21.55,21.55,0,0,0-5.82-.84q-4.62,0-6.87,1.56a4.81,4.81,0,0,0-2.25,4.14,3.74,3.74,0,0,0,1.29,2.94,9.32,9.32,0,0,0,3.27,1.8q2,.66,5.4,1.5a56.82,56.82,0,0,1,7.68,2.25,13.15,13.15,0,0,1,5.13,3.57,9.41,9.41,0,0,1,2.13,6.48A11.07,11.07,0,0,1,446.93,175.11Z"/></svg>